<svg width="48" height="48" viewBox="0 0 48 48" fill="none" xmlns="http://www.w3.org/2000/svg">
<path d="M41.426 16.256L40.934 17.388C40.8571 17.5723 40.7274 17.7298 40.5612 17.8405C40.395 17.9513 40.1997 18.0104 40 18.0104C39.8003 18.0104 39.605 17.9513 39.4388 17.8405C39.2726 17.7298 39.1429 17.5723 39.066 17.388L38.574 16.256C37.709 14.2534 36.1248 12.6478 34.134 11.756L32.616 11.078C32.4319 10.9933 32.2758 10.8575 32.1665 10.6869C32.0571 10.5162 31.999 10.3177 31.999 10.115C31.999 9.91228 32.0571 9.71382 32.1665 9.54314C32.2758 9.37245 32.4319 9.23671 32.616 9.152L34.05 8.514C36.0908 7.59675 37.7021 5.93176 38.552 3.862L39.058 2.64C39.1323 2.4507 39.262 2.28819 39.43 2.17365C39.598 2.0591 39.7967 1.99783 40 1.99783C40.2034 1.99783 40.402 2.0591 40.57 2.17365C40.7381 2.28819 40.8677 2.4507 40.942 2.64L41.448 3.86C42.297 5.93015 43.9076 7.59586 45.948 8.514L47.384 9.154C47.5676 9.23895 47.7231 9.37468 47.832 9.54514C47.941 9.71561 47.9989 9.91369 47.9989 10.116C47.9989 10.3183 47.941 10.5164 47.832 10.6868C47.7231 10.8573 47.5676 10.993 47.384 11.078L45.864 11.754C43.8736 12.6467 42.2902 14.253 41.426 16.256ZM40 22C41.34 22 42.626 21.78 43.83 21.376C43.9434 22.236 44 23.1107 44 24C44 35.046 35.046 44 24 44C20.7148 44.0046 17.4794 43.1966 14.582 41.648L4.00002 44L6.35202 33.418C4.8034 30.5206 3.99541 27.2852 4.00002 24C4.00002 12.954 12.954 4 24 4C25.812 4 27.566 4.24 29.234 4.692C28.3315 6.52181 27.9105 8.55151 28.0107 10.5893C28.1109 12.6271 28.729 14.6057 29.8066 16.3382C30.8843 18.0706 32.3858 19.4997 34.1694 20.4904C35.953 21.4811 37.9598 22.0006 40 22ZM14 24C14 26.6522 15.0536 29.1957 16.929 31.0711C18.8043 32.9464 21.3479 34 24 34C26.6522 34 29.1957 32.9464 31.0711 31.0711C32.9465 29.1957 34 26.6522 34 24H30C30 25.5913 29.3679 27.1174 28.2427 28.2426C27.1174 29.3679 25.5913 30 24 30C22.4087 30 20.8826 29.3679 19.7574 28.2426C18.6322 27.1174 18 25.5913 18 24H14Z" fill="url(#paint0_linear_432_1033)"/>
<defs>
<linearGradient id="paint0_linear_432_1033" x1="25.9994" y1="1.99783" x2="25.9994" y2="44" gradientUnits="userSpaceOnUse">
<stop stop-color="#2FB8FF"/>
<stop offset="1" stop-color="#9EECD9"/>
</linearGradient>
</defs>
</svg>
